PathFileType	4	(X/Y/Z)	Kaydara																																																																																																																									
DataRate	CameraRate	NumFrames	NumMarkers	Units	OrigDataRate	OrigDataStartFrame	OrigNumFrames																																																																																																																					
30	30	9	41	mm	30	115	152																																																																																																																					
Frame#	Time	EMLA_LFHD			EMLA_RFHD			EMLA_LBHD			EMLA_RBHD			EMLA_LFTShould			EMLA_RFTShould			EMLA_LRRShould			EMLA_RRRShould			EMLA_T10			EMLA_STRN			EMLA_TRUN			EMLA_LSHO			EMLA_LUPA			EMLA_LELB			EMLA_LFRM			EMLA_LWRA			EMLA_LWRB			EMLA_LFIN			EMLA_RSHO			EMLA_RUPA			EMLA_RELB			EMLA_RFRM			EMLA_RWRA			EMLA_RWRB			EMLA_RFIN			EMLA_LFWT			EMLA_RFWT			EMLA_LBWT			EMLA_RBWT			EMLA_LTHI			EMLA_LKNE			EMLA_LSHN			EMLA_LANK			EMLA_LHEE			EMLA_LTOE			EMLA_RTHI			EMLA_RKNE			EMLA_RSHN			EMLA_RANK			EMLA_RHEE			EMLA_RTOE		
		X1	Y1	Z1	X2	Y2	Z2	X3	Y3	Z3	X4	Y4	Z4	X5	Y5	Z5	X6	Y6	Z6	X7	Y7	Z7	X8	Y8	Z8	X9	Y9	Z9	X10	Y10	Z10	X11	Y11	Z11	X12	Y12	Z12	X13	Y13	Z13	X14	Y14	Z14	X15	Y15	Z15	X16	Y16	Z16	X17	Y17	Z17	X18	Y18	Z18	X19	Y19	Z19	X20	Y20	Z20	X21	Y21	Z21	X22	Y22	Z22	X23	Y23	Z23	X24	Y24	Z24	X25	Y25	Z25	X26	Y26	Z26	X27	Y27	Z27	X28	Y28	Z28	X29	Y29	Z29	X30	Y30	Z30	X31	Y31	Z31	X32	Y32	Z32	X33	Y33	Z33	X34	Y34	Z34	X35	Y35	Z35	X36	Y36	Z36	X37	Y37	Z37	X38	Y38	Z38	X39	Y39	Z39	X40	Y40	Z40	X41	Y41	Z41
																																																																																																																												
115	3.81	119.07698	1626.47888	505.7972	-50.69748	1619.79614	495.69736	142.05365	1598.76434	359.32365	-51.90739	1593.81546	345.12096	132.11203	1388.85162	469.28978	-16.29763	1374.91455	471.90117	123.84021	1440.42786	321.51131	-28.04151	1425.69794	324.13448	65.68014	1264.56032	267.51486	61.81591	1314.54895	507.32174	63.19272	1210.71915	522.3542	255.67739	1422.61276	414.41849	318.30799	1244.88853	409.93645	342.201	1101.92932	418.33454	343.67752	965.91736	440.47131	259.13813	831.07567	536.31584	318.83108	806.66267	478.88042	311.12265	780.2166	542.80121	-137.40103	1408.45963	398.5532	-199.88567	1218.23082	377.73216	-223.89297	1079.46823	346.77799	-228.09278	974.82498	346.29356	-194.76334	823.74077	478.41087	-219.19926	797.12189	397.96791	-248.99595	773.65273	451.04424	174.44176	965.50919	447.45026	-61.46049	969.30176	455.10433	131.62481	982.18643	248.92321	-42.03222	995.168	268.23172	184.38457	681.93085	310.23331	228.8419	496.81633	385.61958	190.27424	350.12199	289.47231	157.86263	292.38464	108.29877	73.67545	290.1882	31.06823	133.71119	116.37659	98.77813	-77.47236	680.48485	310.22455	-82.90548	491.67198	419.31168	-22.2616	269.00024	428.75683	-49.16215	105.78051	351.44505	8.34741	59.69603	295.78247	-21.28697	44.96573	497.22431
116	3.843	124.41737	1636.48941	560.77057	-45.78643	1631.64063	557.90241	140.80785	1611.18317	412.95296	-53.5931	1608.32855	406.9738	132.90539	1403.80112	522.5563	-13.93374	1392.25098	528.1039	120.75873	1451.61301	375.9726	-30.63356	1438.45428	381.40087	59.52045	1276.22269	324.67506	63.22893	1330.34683	563.20511	62.72281	1226.74248	579.71722	255.35099	1433.37662	465.26928	317.26778	1255.87799	449.31679	338.97087	1112.87628	447.54501	346.51142	977.15919	454.53957	273.75977	826.40984	536.51657	331.72611	813.80188	473.75179	328.27526	777.78992	533.11768	-137.2718	1425.10849	458.20339	-201.26795	1235.16228	455.94212	-226.31716	1093.36861	436.22444	-228.14144	987.62794	447.79495	-181.01555	853.81371	594.31969	-210.94446	817.74002	519.47742	-235.42353	799.6225	577.18933	169.02494	979.89319	509.11587	-68.08688	975.69435	509.30183	135.50322	994.01161	310.97467	-38.18521	1006.36597	324.17702	196.6489	693.47961	391.85268	228.28171	514.23054	494.55593	183.02401	353.79574	417.00726	149.90024	269.64943	245.93441	65.39948	255.02836	165.55981	123.2122	101.16903	271.82943	-70.2187	698.42529	336.00212	-81.03025	497.83382	420.18116	-21.49378	276.18675	430.16041	-48.62877	112.83519	352.06173	10.58661	67.53398	298.49417	-21.67955	45.03093	498.01239
117	3.877	129.51986	1637.92877	615.63717	-40.64279	1634.93362	619.49596	140.22805	1615.28198	466.53812	-54.86684	1614.32953	468.62324	133.83078	1410.18997	575.20329	-11.09948	1400.72296	582.51339	118.05716	1455.07324	430.99758	-32.9232	1442.60849	438.10051	54.95584	1279.99382	382.08614	64.63689	1337.17056	618.70914	62.40176	1233.55087	635.72742	254.70297	1436.32858	516.83804	316.87443	1259.92401	487.95391	338.52676	1118.3065	476.03336	350.09529	984.26872	468.353	287.62861	822.43011	536.69857	342.40047	818.8607	469.97166	343.63701	776.6922	525.59143	-136.18114	1432.76413	516.47274	-202.75347	1245.28244	533.21518	-230.53295	1102.02095	525.67574	-230.11944	997.02271	550.34698	-166.7115	882.22809	707.32262	-203.85475	837.87125	640.75951	-220.58897	825.49339	702.44232	162.83091	984.57787	571.39759	-74.95553	974.04121	561.89819	140.15608	998.05878	373.36876	-33.41903	1009.75754	379.93713	207.84777	699.70314	473.15041	225.9363	526.44684	593.83633	178.06002	351.55003	542.663	145.45247	236.07883	389.75906	61.00059	206.48077	311.08444	116.79548	81.78107	451.44123	-63.95175	711.68411	366.02821	-78.25647	504.16599	426.70673	-21.44316	282.48575	433.96172	-47.52818	119.92374	353.59035	12.23692	75.42324	300.75628	-22.52882	45.20784	498.04634
118	3.91	134.17044	1630.1236	670.67192	-35.88553	1628.41949	680.74356	139.18057	1609.73541	521.17851	-55.42763	1610.38361	529.90978	135.5038	1404.96307	630.36987	-9.55728	1397.56744	637.37915	115.73057	1448.74115	486.50269	-34.64046	1436.56494	494.48296	51.37403	1274.07822	439.36802	65.59549	1333.02292	674.58282	61.9445	1229.48792	692.19101	253.94543	1429.97009	569.65752	316.22217	1257.54776	527.86491	339.71317	1117.9081	503.43285	354.053	985.62088	483.55362	300.27203	816.11473	539.81892	350.94753	820.19638	470.52158	356.80168	773.56529	521.43524	-134.92958	1430.08148	573.6779	-205.00845	1246.62903	607.5412	-235.39806	1103.7764	615.66399	-232.70363	1001.46957	653.02734	-152.75487	907.23808	816.18607	-196.63683	854.87953	760.30327	-205.90168	850.45265	824.82651	156.83269	977.17209	632.11658	-79.65842	965.10025	612.38274	144.19363	993.23532	434.18007	-29.16805	1005.47676	433.42545	214.50073	699.27986	552.01641	223.27454	529.9107	683.80142	176.81728	345.26787	663.31154	146.39307	199.36604	539.23298	64.08305	150.60254	467.82127	118.04319	67.64377	636.81377	-54.93926	714.38187	400.60474	-76.22292	502.84901	449.38446	-18.10615	281.72359	446.11774	-41.91051	123.69075	356.60206	19.06278	80.86878	303.66156	-20.56159	44.5905	498.47607
119	3.943	138.66271	1614.86954	726.45393	-31.0004	1614.48929	741.72813	138.72896	1595.64987	576.85394	-55.15787	1597.97821	591.3789	136.52089	1388.82614	688.8604	-9.25533	1383.36075	695.38765	114.41483	1434.35165	543.79101	-35.92932	1422.57126	552.17415	49.75669	1260.08942	495.93021	65.56361	1317.97623	731.65352	60.71075	1214.47952	749.14543	253.4177	1414.3631	624.74167	316.82438	1246.46065	567.0578	341.53034	1111.0051	531.83319	358.31547	980.88402	501.66775	311.56824	806.21368	547.68906	357.53479	816.72012	475.76344	367.70374	766.58813	522.3764	-134.66742	1417.22214	631.22097	-206.65632	1239.15405	680.74936	-240.32629	1098.67523	705.24818	-234.35158	1000.65109	754.45679	-139.67062	927.21184	920.43274	-189.2584	868.88031	876.67503	-192.29183	873.04565	941.6613	150.10654	962.38533	693.05367	-84.3167	954.21066	661.25153	150.68965	979.27635	494.5932	-22.23688	994.36134	483.60893	213.87955	688.73901	624.53175	219.37626	525.48817	763.01041	178.9369	338.27042	777.65923	153.45363	166.29356	693.35617	73.00156	98.60284	637.15942	131.38946	62.24197	820.86441	-49.00573	709.82071	440.25398	-73.19263	496.72432	478.98567	-14.77982	276.88644	460.88516	-36.59577	124.23928	362.97199	25.4996	84.58009	306.42235	-19.48686	44.36588	498.5342
120	3.977	143.21242	1595.88165	783.65456	-26.00406	1597.67914	803.33252	139.14932	1575.96329	634.23313	-54.39352	1580.67978	653.85849	138.53806	1365.63278	749.69398	-9.85228	1360.4866	757.21283	115.72989	1416.42685	603.86288	-36.27519	1405.92545	613.66924	50.85958	1243.07983	552.40669	65.57787	1295.39841	790.91484	59.60175	1191.72447	806.6835	254.56011	1392.06497	683.67966	317.18538	1230.03288	610.62931	343.7883	1098.95515	565.27855	361.77402	972.07497	524.73236	320.87967	793.5598	558.923	362.31102	810.06172	485.9687	376.17725	757.29645	528.52951	-134.53903	1397.05231	691.67572	-207.33624	1224.31976	752.68692	-243.12876	1088.4259	793.01826	-234.27044	996.56082	852.47726	-129.29901	942.29401	1018.7751	-182.23125	879.94026	986.57211	-181.08643	892.7478	1050.44823	144.66002	943.44032	755.1593	-86.53154	940.19684	712.25731	158.22323	959.31351	555.38151	-15.16667	977.65282	536.75209	207.09526	670.29243	691.35231	211.26291	513.89557	835.94849	181.17657	333.43903	886.4769	167.31245	145.82388	847.83882	89.97217	62.93929	810.0769	151.51347	74.16068	997.48123	-41.80756	707.88696	483.35274	-72.74021	494.5879	499.74453	-14.49155	275.13792	473.45779	-32.95846	128.84695	365.15156	30.20067	91.16772	309.34584	-18.84224	44.11861	497.67872
121	4.01	148.52135	1578.27011	842.75398	-20.20293	1581.06659	866.21971	140.88814	1555.65277	693.86429	-52.02384	1561.56403	717.72156	141.39087	1342.0639	812.00005	-8.56884	1334.52057	821.03836	117.98859	1400.18585	668.1089	-35.32614	1388.45749	676.69289	52.15085	1226.72073	611.84925	67.44237	1271.50146	852.33345	61.50012	1167.70996	866.73103	257.50599	1370.53024	745.11154	318.36218	1212.01889	662.1109	344.45606	1085.30167	608.66722	363.6227	964.22531	556.96907	328.12458	782.7282	577.8072	366.73283	805.54588	504.20315	382.78736	749.96666	542.19872	-132.31249	1378.08334	756.97319	-205.97731	1207.54738	823.41812	-242.85465	1077.53967	873.31558	-232.11964	991.61179	940.6144	-122.17752	954.41528	1107.79762	-176.30709	889.22653	1084.42642	-173.69949	909.842	1146.56723	143.45839	924.06067	819.4062	-85.60047	925.0563	768.9917	163.04871	938.08716	618.20873	-10.20146	960.33028	595.27626	200.00942	647.10701	752.23709	207.45892	496.71898	905.29655	182.02278	331.75106	987.32018	178.47965	140.09901	989.72061	106.19695	47.14976	967.3912	159.58728	101.19676	1150.8799	-35.11986	707.21901	530.33051	-72.12695	492.15992	529.7414	-15.28409	274.44782	489.68025	-33.28052	135.78814	371.61228	29.97365	101.76992	313.673	-18.78229	43.88227	497.46365
122	4.043	154.91867	1564.81689	903.94638	-13.25273	1567.02515	930.7209	144.63701	1539.47281	755.65056	-47.73887	1544.53873	783.14743	145.82241	1326.57501	875.09186	-4.28138	1316.60721	886.39061	119.91718	1385.41183	732.87376	-33.41597	1375.82413	743.20572	51.38861	1213.67264	674.83498	71.91721	1254.53377	916.21262	66.63542	1150.9948	930.96123	260.94027	1354.59045	805.66986	318.40845	1197.88353	719.40224	343.02193	1072.86705	661.8898	363.7328	958.21434	602.40875	333.75977	774.28726	607.86915	372.39716	805.43953	536.99036	388.17806	745.67032	568.30547	-127.0533	1365.26123	826.85295	-202.03865	1195.75394	892.93022	-240.92903	1067.3658	943.25829	-228.43975	984.99985	1016.03683	-118.57364	962.06879	1185.47501	-169.67817	892.86537	1166.45905	-169.95239	919.81361	1226.57433	144.04492	909.96292	884.84283	-83.73979	912.95364	829.5694	169.57205	920.76973	683.65692	-3.2678	946.54686	657.53464	205.77971	629.99512	818.57872	206.94767	481.1322	970.68306	184.45446	329.75574	1070.85091	186.14864	140.90263	1097.21214	118.54513	43.09752	1084.35745	157.41333	117.83887	1264.63509	-34.4808	703.17284	584.94789	-75.0893	489.07269	573.09792	-18.24619	274.13115	515.77923	-36.60199	147.40586	384.69677	25.93618	119.9691	323.56148	-19.04142	43.53531	499.29024
123	4.077	162.62964	1557.1344	966.90872	-5.10245	1559.32922	996.45088	149.95364	1529.27261	819.27162	-41.87848	1534.30435	849.80606	153.3287	1316.68716	941.11145	3.16637	1309.25217	955.60349	124.18336	1375.52155	798.86551	-28.46937	1368.22449	812.42714	53.13565	1204.18999	743.0452	79.56162	1246.1982	983.94066	73.17131	1142.6432	998.60603	266.758	1343.85941	868.77525	318.5317	1187.01614	778.40584	341.52702	1063.53989	720.94513	362.93282	953.09044	658.26195	338.73192	767.38007	653.74313	375.53005	806.51306	585.5854	392.25922	743.95531	609.55502	-120.86405	1358.00003	897.53365	-196.21172	1187.60559	961.41403	-237.55175	1057.00294	1006.16852	-223.34665	975.34798	1079.89578	-118.11273	962.22862	1252.4366	-162.40276	888.68454	1233.51433	-168.4367	917.42554	1292.22931	147.46492	903.95645	953.76633	-80.33999	904.09462	899.05602	175.09859	912.52289	752.7272	2.3596	936.8309	727.59666	208.24842	625.58796	893.73009	207.9693	475.60326	1044.27002	183.08245	320.34054	1140.6926	180.79811	130.70428	1161.31348	110.48274	33.63446	1146.55968	154.68877	105.66409	1326.83502	-30.92381	696.45729	655.74364	-80.01994	484.78607	636.76582	-22.83575	274.84222	555.68672	-42.607	165.33663	409.60762	18.80532	147.82455	345.79868	-19.63075	42.67208	505.1527
